<?xml version="1.0" encoding="utf-8"?>
<!-- Generator: Adobe Illustrator 24.0.0, SVG Export Plug-In . SVG Version: 6.00 Build 0)  -->
<svg version="1.1" id="Layer_1" xmlns="http://www.w3.org/2000/svg" xmlns:xlink="http://www.w3.org/1999/xlink" x="0px" y="0px"
	 viewBox="0 0 155 220" style="enable-background:new 0 0 155 220;" xml:space="preserve">
<style type="text/css">
	.st0{fill:#BC2029;}
</style>
<g>
	<path class="st0" d="M77.5,215.2c-20,0-38.8-7.8-53-22s-22-33-22-53V79.8c0-20,7.8-38.8,22-53s33-22,53-22s38.8,7.8,53,22
		s22,33,22,53v60.3c0,20-7.8,38.8-22,53S97.5,215.2,77.5,215.2 M77.5,5.6c-19.8,0-38.4,7.8-52.5,21.8C11,41.4,3.2,60.1,3.2,79.8
		v60.3c0,19.8,7.7,38.4,21.8,52.5s32.7,21.8,52.5,21.8s38.4-7.8,52.5-21.8c14.1-14.1,21.8-32.7,21.8-52.5V79.8
		c0-19.8-7.8-38.4-21.8-52.5C115.9,13.3,97.3,5.6,77.5,5.6"/>
	<path class="st0" d="M77.5,208.1c-37.5,0-67.9-30.5-67.9-67.9V79.8c0-37.4,30.5-67.9,67.9-67.9c37.5,0,67.9,30.5,67.9,67.9v60.3
		C145.4,177.6,115,208.1,77.5,208.1 M77.5,12.6c-37.1,0-67.2,30.2-67.2,67.2v60.3c0,37.1,30.2,67.2,67.2,67.2
		c37.1,0,67.2-30.2,67.2-67.2V79.8C144.7,42.8,114.6,12.6,77.5,12.6"/>
	<path class="st0" d="M85.8,181l2.7-1.7l-3.3-2.3L85.8,181z M87.6,179.2l-1.4,0.9l-0.3-2.1L87.6,179.2z"/>
	<path class="st0" d="M77.4,169.9c-0.6,0-1.4-0.1-1.4-0.1l-0.4-0.1l1.9,5.1l1.9-5.1l-0.4,0.1C78.9,169.8,78.1,169.9,77.4,169.9
		 M77.5,173.4l-1.1-3c0.3,0,0.7,0.1,1.1,0.1s0.8,0,1.2-0.1L77.5,173.4z"/>
	<path class="st0" d="M92.5,178.4c-5.8-2.7-8.5-7.2-10.8-11.6l0,0c0,0,0,0,0-0.1c-0.8-1.5-1.8-2.5-2.9-3c0,0-0.5-0.2-0.7-0.2H78
		h-0.1h-0.1h-0.1h-0.1h-0.1h-0.1c0,0,0,0-0.1,0c-0.2,0-0.5,0.1-0.5,0.1c-0.3,0.1-0.5,0.2-0.5,0.2c-1.1,0.4-2.1,1.4-2.8,2.9v0.1
		c-2.3,4.4-5,9-10.8,11.6l-0.3,0.2l0.3,0.3c4.1,4,9.4,6.2,15.1,6.2c5.7,0,11-2.2,15.1-6.2l0.3-0.3L92.5,178.4z M81.9,168.2
		c0.4,0.7,0.8,1.4,1.2,2.1l0.1,6.7l-2.7-3C81.2,171.9,81.8,169.9,81.9,168.2 M77.4,164.1c1.1,0,2,0.5,2.6,1.2
		c-0.8,0.4-1.6,0.6-2.5,0.6s-1.8-0.2-2.6-0.6C75.5,164.6,76.4,164.1,77.4,164.1 M74.6,165.7c0.9,0.5,1.9,0.7,3,0.7
		c1,0,2-0.2,2.9-0.7c0.3,0.4,0.5,0.8,0.7,1.1c-1.1,0.6-2.4,0.9-3.6,0.9c-1.3,0-2.6-0.3-3.7-0.9C74,166.5,74.3,166.1,74.6,165.7
		 M71.9,170.4c0.5-0.8,0.9-1.5,1.3-2.3c0,1.7,0.6,3.7,1.3,6l-2.8,3.1L71.9,170.4z M63,178.7c3.9-1.9,6.4-4.6,8.3-7.5l-0.1,7.2
		l3.5-3.9c0.1,0.2,0.1,0.3,0.2,0.5c0.9,2.9,1.9,6.1,2.3,9.5C71.8,184.4,66.9,182.4,63,178.7 M77.5,183.3c-0.4-3-1.4-5.8-2.2-8.4
		c-1-3-1.8-5.6-1.6-7.6c1.2,0.6,2.5,0.9,3.8,0.9s2.6-0.3,3.8-0.9c0.3,1.9-0.6,4.6-1.6,7.6C78.9,177.5,77.9,180.3,77.5,183.3
		 M77.8,184.5c0.4-3.4,1.4-6.6,2.3-9.4c0-0.1,0.1-0.3,0.1-0.4l3.4,3.8l-0.1-7.3c1.9,2.9,4.4,5.7,8.4,7.6
		C88.1,182.4,83.1,184.4,77.8,184.5"/>
	<path class="st0" d="M71,181.8l3.1,0.9l-0.6-4L71,181.8z M71.8,181.6l1.3-1.6l0.3,2.1L71.8,181.6z"/>
	<path class="st0" d="M69.2,181l0.6-4l-3.3,2.3L69.2,181z M68.8,180.1l-1.4-0.9l1.7-1.2L68.8,180.1z"/>
	<path class="st0" d="M80.9,182.7l3.1-0.9l-2.5-3.1L80.9,182.7z M81.8,179.9l1.3,1.6l-1.6,0.4L81.8,179.9z"/>
	<path class="st0" d="M94.4,155.5H60.6c-0.2,0-0.4-0.2-0.4-0.4s0.2-0.4,0.4-0.4h33.7c0.2,0,0.4,0.2,0.4,0.4
		C94.7,155.4,94.6,155.5,94.4,155.5"/>
	<path class="st0" d="M75.8,103.3c-8.3,0-16-3-21.8-8.4c-0.1-0.1-0.1-0.3,0-0.4s0.3-0.1,0.4,0c5.7,5.3,13.3,8.3,21.4,8.3
		c1,0,2,0,3-0.1c0.1,0,0.3,0.1,0.3,0.2c0,0.2-0.1,0.3-0.2,0.3C77.8,103.2,76.8,103.3,75.8,103.3"/>
	<path class="st0" d="M88.7,100.6c-0.1,0-0.2-0.1-0.3-0.2c-0.1-0.1,0-0.3,0.1-0.4c6-2.6,11-7,14-12.5c0.1-0.1,0.2-0.2,0.4-0.1
		c0.1,0.1,0.2,0.2,0.1,0.4C99.9,93.4,94.8,97.9,88.7,100.6C88.7,100.6,88.7,100.6,88.7,100.6"/>
	<path class="st0" d="M75.8,108.1c-7.6,0-14.9-2.2-21-6.4c-0.1-0.1-0.2-0.3-0.1-0.4c0.1-0.1,0.3-0.2,0.4-0.1
		c6,4.1,13.2,6.3,20.7,6.3c1,0,1.9,0,2.9-0.1c0.2,0,0.3,0.1,0.3,0.3c0,0.2-0.1,0.3-0.3,0.3C77.8,108.1,76.8,108.1,75.8,108.1"/>
	<path class="st0" d="M88.6,105.8l-0.2-0.5c7.5-2.8,13.8-7.8,17.8-14.2l0.5,0.3C102.6,97.9,96.2,103,88.6,105.8"/>
	<path class="st0" d="M77.2,89.2c-5.8,0-11.3-2.2-14.2-5.8c-0.1-0.1-0.1-0.3,0-0.4s0.3-0.1,0.4,0c2.8,3.4,8.1,5.6,13.8,5.6
		c0.5,0,0.9,0,1.3,0l0,0c0.1,0,0.3,0.1,0.3,0.3c0,0.2-0.1,0.3-0.3,0.3C78.1,89.2,77.7,89.2,77.2,89.2"/>
	<path class="st0" d="M77.9,85.5h-1.7c-3.2,0-6.3-1-8.8-3c-0.1-0.1-0.1-0.3,0-0.4s0.3-0.1,0.4,0c2.4,1.9,5.4,2.9,8.5,2.9H78
		c7.6,0,13.8-6.2,13.8-13.8V37c0-0.2,0.1-0.3,0.3-0.3c0.2,0,0.3,0.1,0.3,0.3v34.1C92.3,79.1,85.8,85.5,77.9,85.5"/>
	<path class="st0" d="M78.8,77.9c-0.2,0-0.3-0.1-0.3-0.3c0-0.2,0.1-0.3,0.3-0.3c4.4,0,8-3.6,8-8V35.2c0-0.2,0.1-0.3,0.3-0.3
		c0.2,0,0.3,0.1,0.3,0.3v34.1C87.4,74,83.5,77.9,78.8,77.9"/>
	<path class="st0" d="M79,71.8c-0.2,0-0.3-0.1-0.3-0.3c0-0.2,0.1-0.3,0.3-0.3c1.7,0,3.2-1.4,3.2-3.2V34.2c0-0.2,0.1-0.3,0.3-0.3
		s0.3,0.1,0.3,0.3v33.9C82.8,70.1,81.1,71.8,79,71.8"/>
	<path class="st0" d="M88.9,110.1H78.5v-43c0-0.2,0.1-0.3,0.3-0.3s0.3,0.1,0.3,0.3v42.4h9.3v-29c0-0.2,0.1-0.3,0.3-0.3
		c0.2,0,0.3,0.1,0.3,0.3v29.6H88.9z"/>
	<path class="st0" d="M78.8,57.9c-0.2,0-0.3-0.1-0.3-0.3V34.1c0-0.2,0.1-0.3,0.3-0.3c0.2,0,0.3,0.1,0.3,0.3v23.5
		C79.1,57.8,78.9,57.9,78.8,57.9"/>
	<path class="st0" d="M55.8,106.6h-7.6v-0.3l1.6-11.9l-7.3,2.1l1.3-5.9h4.5c-1.3-1.6-2.2-4-2.2-5.8c0-3.1,2.6-5.6,5.8-5.6
		s5.8,2.5,5.8,5.6c0,1.8-0.9,4.2-2.1,5.8h4.5l1.3,5.9l-7.3-2.1l0.6,4.8c0,0.2-0.1,0.3-0.2,0.3c-0.1,0-0.3-0.1-0.3-0.2l-0.8-5.6
		l7.2,2.1l-1-4.6h-5.2l0.4-0.5c1.4-1.5,2.4-4,2.4-5.9c0-2.8-2.4-5.1-5.3-5.1c-2.9,0-5.3,2.3-5.3,5.1c0,1.9,1,4.3,2.4,5.9l0.4,0.5
		h-5.3l-1,4.6l7.2-2.1l-1.7,12.4h6.3l-0.6-4.6c0-0.2,0.1-0.3,0.2-0.3c0.2,0,0.3,0.1,0.3,0.2L55.8,106.6z"/>
	<path class="st0" d="M52,90.4l-0.2-0.2c-0.1-0.1-2.8-3.3-2.8-4.9s1.3-3,3-3c1.6,0,3,1.3,3,3c0,1.6-2.7,4.7-2.8,4.9L52,90.4z
		 M52,82.8c-1.3,0-2.4,1.1-2.4,2.4c0,1,1.6,3.2,2.4,4.3c0.8-1,2.4-3.2,2.4-4.3C54.5,83.9,53.4,82.8,52,82.8"/>
	<path class="st0" d="M52.8,92c0,0.4-0.4,0.8-0.8,0.8c-0.4,0-0.8-0.4-0.8-0.8s0.4-0.8,0.8-0.8C52.5,91.2,52.8,91.6,52.8,92"/>
	<path class="st0" d="M61.7,76.6c-1.2,0-2.3-0.3-3-1.2c-0.7-1-0.4-1.9-0.2-2.7c0.2-0.5,0.3-1,0.2-1.5c0-0.1,0-0.3,0.2-0.3
		c0.1-0.1,0.3,0,0.3,0.2c0.2,0.7,0,1.2-0.2,1.8c-0.2,0.7-0.4,1.4,0.1,2.2c1,1.4,3.3,1,5.2,0.7h0.2c0.4-0.1,0.8-0.1,1.2-0.1
		c1.9-0.2,4.3-0.4,6.8-2.3c2.2-1.7,3.1-4,3.3-5.3c0.1-0.5,0.6-0.9,1.1-1c1.2-0.1,3.3-0.7,4-2.6c0.8-2.2,1.2-5.3,0.5-6.8
		c-0.2-0.4-0.5-0.6-0.8-0.7c-0.4-0.1-0.8-0.1-1.1,0.1c-0.6,0.4-0.9,1.5-0.9,1.9v0.2h-0.2c-0.7,0-1.2-0.6-1.2-1.2v-0.8
		c0-2.8-2.3-5.1-5.1-5.1h-14v-0.2c0-0.1-0.3-3,1.3-6.6c0.1-0.1,0.2-0.2,0.4-0.1c0.1,0.1,0.2,0.2,0.1,0.4c-1.3,2.9-1.3,5.3-1.3,6
		h13.5c3.1,0,5.6,2.5,5.6,5.6V58c0,0.3,0.2,0.6,0.5,0.7c0.1-0.5,0.4-1.5,1.1-2c0.4-0.3,1-0.4,1.5-0.2c0.5,0.1,0.9,0.5,1.2,1
		c0.9,1.6,0.4,4.9-0.4,7.2c-0.8,2.2-3.1,2.8-4.4,2.9c-0.3,0-0.6,0.3-0.7,0.6c-0.3,1.3-1.2,3.8-3.6,5.6c-2.7,2-5.2,2.2-7.1,2.4
		c-0.4,0-0.8,0.1-1.2,0.1h-0.2C63.6,76.4,62.7,76.6,61.7,76.6"/>
	<path class="st0" d="M97.8,58.4c-0.1,0-0.2,0-0.2-0.1l-5.4-8.1l0.2-0.2c2.8-2,4.2-4.1,4.3-6c0.2-2.5-1.8-4.3-3-5.5l-0.2-0.2
		C92.2,37,82,31.1,69.4,36.4c-3,1.3-5.3,2.9-7.1,5c-0.1,0.1-0.3,0.1-0.4,0c-0.1-0.1-0.1-0.3,0-0.4c1.8-2.2,4.2-3.9,7.3-5.2
		c11.9-5,22.4-0.2,24.7,2l0.2,0.2c1.2,1.2,3.3,3.2,3.1,5.9c-0.1,2.1-1.6,4.2-4.4,6.3L98,58C98.1,58.1,98.1,58.3,97.8,58.4L97.8,58.4
		"/>
	<path class="st0" d="M99.5,56.2L96.3,56c-0.2,0-0.3-0.1-0.3-0.3s0.1-0.2,0.3-0.3l2.2,0.1l-3.2-5h-2.4c-0.2,0-0.3-0.1-0.3-0.3
		s0.1-0.3,0.3-0.3h2.7L99.5,56.2z"/>
	<path class="st0" d="M98.8,61.6c-1.1,0-1.9-0.9-1.9-1.9c0-1.1,0.9-1.9,1.9-1.9c1.1,0,1.9,0.9,1.9,1.9
		C100.7,60.7,99.9,61.6,98.8,61.6 M98.8,58.3c-0.8,0-1.4,0.6-1.4,1.4c0,0.8,0.6,1.4,1.4,1.4s1.4-0.6,1.4-1.4
		C100.2,58.9,99.6,58.3,98.8,58.3"/>
	<path class="st0" d="M97.8,63.4c-0.1,0-0.2,0-0.2-0.1c-0.1-0.1-0.1-0.3,0.1-0.4l4.4-3c0.1-0.1,0.3-0.1,0.4,0.1
		c0.1,0.1,0.1,0.3-0.1,0.4l-4.4,3C98,63.4,97.9,63.4,97.8,63.4"/>
	<path class="st0" d="M58.8,71c-0.4,0-0.7-0.1-0.9-0.4c-0.4-0.4-0.4-1.1-0.1-1.7c-0.2-0.2-0.5-0.4-0.6-0.7c-0.2-0.6,0-1.2,0.5-1.5
		c1-0.7,2,0.1,2.7,0.6l0.1,0.1c0.7,0.5,1.3,0.8,1.3,0.8l0.3,0.1L62,68.6c-0.1,0.1-1.3,1.9-2.6,2.3C59.2,71,59,71,58.8,71 M58.3,69.1
		c-0.2,0.5-0.2,0.9,0,1.2c0.2,0.2,0.5,0.3,0.9,0.1c0.7-0.2,1.4-1,1.8-1.5c-0.5,0-1.8,0.1-2.5,0.2C58.5,69.1,58.4,69.1,58.3,69.1
		 M58.5,66.9c-0.2,0-0.4,0-0.5,0.2c-0.4,0.3-0.3,0.7-0.2,0.9c0.1,0.3,0.4,0.6,0.7,0.5c0.7-0.1,2-0.1,2.5-0.2
		c-0.2-0.1-0.5-0.3-0.7-0.5l-0.1-0.1C59.5,67.3,59,66.9,58.5,66.9"/>
	<path class="st0" d="M58.1,66.8L58.1,66.8c-0.2,0-0.3-0.2-0.3-0.3c0.1-0.4,0.1-1.2-0.2-1.4c-0.3-0.2-0.6-0.3-0.9-0.4
		c-0.3-0.1-0.5-0.2-0.8-0.3c-0.4-0.2-0.6-0.4-0.7-0.7c-0.1-0.5,0-1,0.5-1.8c0.2-0.3,0.5-0.8,0.9-1.4c0.9-1.4,2.1-3.2,2.3-4
		c0.3-1,0.1-4.4,0.1-4.5c0-0.2,0.1-0.3,0.3-0.3l0,0c0.1,0,0.3,0.1,0.3,0.3c0,0.1,0.2,3.5-0.2,4.7c-0.3,0.8-1.5,2.6-2.4,4.1
		c-0.3,0.5-0.7,1-0.9,1.3c-0.4,0.6-0.5,1.1-0.4,1.4c0,0.1,0.1,0.2,0.4,0.4c0.3,0.1,0.5,0.2,0.8,0.3c0.4,0.1,0.7,0.2,1.1,0.5
		c0.6,0.4,0.4,1.7,0.4,1.9C58.4,66.7,58.3,66.8,58.1,66.8"/>
	<path class="st0" d="M57.4,64.6c-0.2,0-0.3-0.1-0.3-0.3c0,0,0-0.4,0.3-0.6c0.2-0.2,0.6-0.2,1,0c0.3,0.1,0.9,0.4,1.1,0.2
		c0.1-0.1,0.2-0.4,0.2-0.8c0-0.2,0.1-0.3,0.3-0.3l0,0c0.1,0,0.3,0.1,0.3,0.3c0,0.6-0.1,1-0.4,1.2c-0.4,0.3-1.1,0.1-1.7-0.1
		c-0.3-0.1-0.4-0.1-0.5-0.1s-0.1,0.1-0.1,0.1C57.7,64.5,57.6,64.6,57.4,64.6"/>
	<path class="st0" d="M57.6,85.1c-0.1,0-0.2-0.1-0.3-0.2s0-0.3,0.1-0.4c3.3-1.5,8.8-2.4,10-2.6c0-0.9,0.1-3.8,0-4.7
		c-0.1-0.9-1.3-1.3-1.3-1.3c-0.1,0-0.2-0.2-0.2-0.3c0-0.1,0.2-0.2,0.3-0.2c0.1,0,1.6,0.5,1.7,1.8c0.1,1.1,0,4.8,0,5v0.2h-0.2
		C67.6,82.4,61.2,83.3,57.6,85.1C57.7,85.1,57.6,85.1,57.6,85.1 M67.7,82.2L67.7,82.2L67.7,82.2z"/>
	<path class="st0" d="M112.4,110.1h-3.8l-0.2-3.5c-0.6-13.1-0.6-13.6-3.8-17.1c-3.9-4.2-15.9-6.4-16.1-6.5c-0.2,0-0.2-0.2-0.2-0.3
		c0-0.2,0.2-0.3,0.3-0.2c0.5,0.1,12.4,2.3,16.4,6.6c3.3,3.6,3.4,4.2,3.9,17.4l0.1,3h2.7V70.7c0-3.7-1.2-16.3-16-23.7
		c-0.1-0.1-0.2-0.2-0.1-0.4c0.1-0.1,0.2-0.2,0.4-0.1c15.1,7.5,16.3,20.4,16.3,24.2L112.4,110.1L112.4,110.1z"/>
	<path class="st0" d="M60.8,55.6c-0.1,0-0.1,0-0.2-0.1c-0.1-0.1-0.1-0.3,0-0.4c0.1-0.1,1.8-1.9,4-1.9c2.2,0,3.4,0.8,4.2,1.3
		c0.4,0.3,0.7,0.5,1,0.5h2.7c0.2,0,0.3,0.1,0.3,0.3s-0.1,0.3-0.3,0.3h-2.7c-0.4,0-0.8-0.2-1.3-0.5c-0.8-0.5-1.9-1.2-3.9-1.2
		c-1.9,0-3.6,1.8-3.6,1.8C60.9,55.6,60.8,55.6,60.8,55.6"/>
	<path class="st0" d="M65.1,58.4h-4.4l0.2-0.4c0-0.1,1.2-2.6,3.7-2.6c1.1,0,2.6,0.2,3.9,1.4H71c0.2,0,0.3,0.1,0.3,0.3
		s-0.1,0.3-0.3,0.3h-2.9C67.1,58.4,65.4,58.4,65.1,58.4 M61.6,57.9H65c0.2,0,1.8,0,2.8-0.9c-0.9-0.7-2-1-3.2-1
		C63,56,62,57.2,61.6,57.9"/>
	<path class="st0" d="M65.5,57c0,0.7-0.5,1.2-1.2,1.2c-0.7,0-1.2-0.5-1.2-1.2s0.5-1.2,1.2-1.2C65,55.8,65.5,56.4,65.5,57"/>
	<path class="st0" d="M78.8,53.8c-0.2,0-0.3-0.1-0.3-0.3c0-3.9-3.2-7-7-7h-9c-0.1,0-0.2,0-0.3,0h-0.1c-2.5-0.2-4.4-2.3-4.4-4.8V41
		c0-0.8-0.7-1.5-1.5-1.5h-5v-0.3c0-1.4,1.1-2.6,2.6-2.6h0.8c0.3-0.4,1.5-1.8,3.5-1.8c2.2,0,3.5,1,3.5,2.8c0,0.3,0,0.5,0,0.8
		c0,0.9-0.1,2,0.3,2.4c0.1,0.1,0.2,0.2,0.4,0.2h0.3v4.8l0,0h9c4.2,0,7.6,3.4,7.6,7.6C79.1,53.6,78.9,53.8,78.8,53.8 M51.7,39h4.5
		c1.1,0,2,0.9,2,2v0.6c0,2.2,1.6,3.9,3.7,4.2v-4.2c-0.2,0-0.4-0.1-0.5-0.3c-0.5-0.5-0.5-1.6-0.5-2.8c0-0.3,0-0.5,0-0.8
		c0-1.9-1.6-2.3-2.9-2.3c-2,0-3.1,1.7-3.1,1.7l-0.1,0.1h-1.1C52.7,37.3,51.8,38,51.7,39"/>
	<path class="st0" d="M56,37.3c0-0.4,0.3-0.8,0.8-0.8c0.4,0,0.8,0.3,0.8,0.8H56z"/>
	<path class="st0" d="M64.3,34l-2.5-3l0.3-0.2c4.8-3,11-4.6,17.4-4.6c6.5,0,12.6,1.6,17.4,4.6l0.3,0.2l-2.5,3l-0.2-0.1
		c-4.1-2.4-9.4-3.8-15-3.8s-10.9,1.3-15,3.8L64.3,34z M62.7,31.1l1.8,2.2c4.2-2.4,9.5-3.7,15.1-3.7s10.9,1.3,15.1,3.7l1.8-2.2
		c-4.7-2.8-10.6-4.4-16.9-4.4C73.3,26.8,67.3,28.3,62.7,31.1"/>
	<path class="st0" d="M68,36.8c-0.1,0-0.2,0-0.2-0.1L65,33.4c-0.1-0.1-0.1-0.3,0-0.4c0.1-0.1,0.3-0.1,0.4,0l2.8,3.3
		c0.1,0.1,0.1,0.3,0,0.4C68.2,36.8,68.1,36.8,68,36.8"/>
	<path class="st0" d="M91.2,36.6c-0.1,0-0.1,0-0.2-0.1s-0.1-0.3,0-0.4l2.5-2.9c0.1-0.1,0.3-0.1,0.4,0s0.1,0.3,0,0.4l-2.5,2.9
		C91.3,36.5,91.2,36.6,91.2,36.6"/>
	<path class="st0" d="M103.2,51.3L103.2,51.3c-0.2-0.1-0.3-0.3-0.2-0.4c1.3-2.1,2.1-4.8,2.1-7.1c0-2.4-0.7-4.7-2.1-6.9l-6.7,4.3
		c-0.1,0.1-0.3,0-0.4-0.1s0-0.3,0.1-0.4l7.2-4.6l0.2,0.2c1.6,2.3,2.4,4.8,2.4,7.4c0,2.4-0.8,5.2-2.2,7.4
		C103.4,51.3,103.3,51.3,103.2,51.3"/>
	<path class="st0" d="M24.5,140.2c-0.9-0.3-1.6-0.6-2.2-1.1s-0.9-1-0.9-1.6v-2.7H22c0.3,1.7,0.8,2.9,1.7,3.7c0.8,0.8,2,1.1,3.4,1.1
		c0.9,0,1.7-0.2,2.4-0.7c0.7-0.5,1-1.1,1-1.9c0-0.7-0.2-1.3-0.7-1.9c-0.4-0.5-1.2-1.1-2.1-1.7l-3.1-1.9c-1.1-0.6-1.9-1.3-2.3-2
		s-0.7-1.5-0.7-2.4c0-1.3,0.5-2.4,1.4-3.1c0.9-0.8,2.1-1.2,3.6-1.2c0.9,0,1.7,0.1,2.6,0.4c0.8,0.2,1.5,0.6,2.1,1.1s0.8,1,0.8,1.6
		v2.7h-0.5c-0.3-1.7-0.8-2.9-1.6-3.6c-0.8-0.7-1.9-1.1-3.4-1.1c-0.8,0-1.5,0.2-2.1,0.7s-0.9,1.1-0.9,1.9c0,0.7,0.2,1.3,0.6,1.7
		c0.4,0.5,1.2,1,2.2,1.6l3.1,1.9c1.2,0.7,2,1.3,2.4,1.9c0.5,0.6,0.7,1.3,0.7,2.3c0,1.4-0.5,2.6-1.4,3.4c-0.9,0.9-2.2,1.3-3.9,1.3
		C26.4,140.5,25.4,140.4,24.5,140.2"/>
	<path class="st0" d="M41.6,126.1c0-0.9-0.1-1.6-0.4-2c-0.2-0.4-0.7-0.7-1.5-0.7h-0.5v-0.5h2.4c0.7,0,1.2,0.1,1.5,0.3
		c0.3,0.2,0.6,0.5,0.7,0.9c0.1,0.4,0.2,1.1,0.2,2v4.8h8v-8h2.4v14.4c0,0.9,0.1,1.6,0.4,2c0.2,0.4,0.7,0.7,1.5,0.7h0.5v0.5h-2.4
		c-0.7,0-1.2-0.1-1.5-0.3s-0.6-0.5-0.7-0.9c-0.1-0.4-0.2-1.1-0.2-2V132h-8v8.6h-2.4V126.1z"/>
	<path class="st0" d="M90,140.2c-0.9-0.3-1.6-0.6-2.2-1.1s-0.9-1-0.9-1.6v-2.7h0.5c0.3,1.7,0.8,2.9,1.7,3.7c0.8,0.8,2,1.1,3.4,1.1
		c0.9,0,1.7-0.2,2.4-0.7c0.7-0.5,1-1.1,1-1.9c0-0.7-0.2-1.3-0.7-1.9c-0.4-0.5-1.2-1.1-2.1-1.7l-3.1-1.9c-1.1-0.6-1.9-1.3-2.3-2
		S87,128,87,127.1c0-1.3,0.5-2.4,1.4-3.1c0.9-0.8,2.1-1.2,3.6-1.2c0.9,0,1.7,0.1,2.6,0.4s1.5,0.6,2.1,1.1s0.8,1,0.8,1.6v2.7H97
		c-0.3-1.7-0.8-2.9-1.6-3.6c-0.8-0.7-1.9-1.1-3.4-1.1c-0.8,0-1.5,0.2-2.1,0.7s-0.9,1.1-0.9,1.9c0,0.7,0.2,1.3,0.6,1.7
		c0.4,0.5,1.2,1,2.2,1.6l3.1,1.9c1.2,0.7,2,1.3,2.4,1.9c0.5,0.6,0.7,1.3,0.7,2.3c0,1.4-0.5,2.6-1.4,3.4c-0.9,0.9-2.2,1.3-3.9,1.3
		C91.8,140.6,90.9,140.5,90,140.2"/>
	<path class="st0" d="M107.1,126.1c0-0.9-0.1-1.6-0.4-2c-0.2-0.4-0.7-0.7-1.5-0.7h-0.5v-0.5h2.4c0.7,0,1.2,0.1,1.5,0.3
		c0.3,0.2,0.6,0.5,0.7,0.9s0.2,1.1,0.2,2v4.8h8v-8h2.4v14.4c0,0.9,0.1,1.6,0.4,2c0.2,0.4,0.7,0.7,1.5,0.7h0.5v0.5h-2.4
		c-0.7,0-1.2-0.1-1.5-0.3s-0.6-0.5-0.7-0.9s-0.2-1.1-0.2-2V132h-8v8.6h-2.4V126.1z"/>
	<path class="st0" d="M65.7,126.1c0-0.9-0.1-1.6-0.4-2c-0.2-0.4-0.7-0.7-1.5-0.7h-0.5v-0.5h11.4c1.5,0,2.3,0.7,2.3,2.1v2h-0.5
		c0-2-1.1-3.1-3.3-3.1h-5v6.9h7.2v1.1h-7.2v7.5h4.7c1.2,0,2.2-0.2,2.9-0.7c0.7-0.4,1.2-1.2,1.7-2.3l0.5,0.1l-0.9,2.5
		c-0.3,0.9-1,1.3-2,1.3h-9.2v-14.2H65.7z"/>
	<path class="st0" d="M129.6,140.3c-0.3-0.2-0.6-0.5-0.7-0.9c-0.1-0.4-0.2-1.1-0.2-2V123h2.4v14.4c0,0.9,0.1,1.6,0.4,2
		c0.2,0.4,0.7,0.7,1.5,0.7h0.5v0.5h-2.4C130.4,140.6,129.9,140.5,129.6,140.3"/>
</g>
</svg>
